<svg width="211" height="238" viewBox="0 0 211 238" fill="none" xmlns="http://www.w3.org/2000/svg">
    <path d="M52.0201 127.39C49.9101 124.35 48.0101 121.2 46.3701 117.93C45.3301 115.86 44.4001 113.75 43.5801 111.6C42.5901 108.99 41.6101 105.44 42.3201 102.73C42.9801 100.2 45.0501 98.85 45.7401 96.33C46.6701 92.88 44.8501 88.89 41.6201 87.34C38.4001 85.79 34.1401 86.87 32.0301 89.75C33.5301 87.6 33.6501 84.71 32.4201 82.51C31.1901 80.31 28.6701 78.89 26.1501 78.98C23.6301 79.07 21.2201 80.67 20.1501 82.96C19.1001 85.23 19.3501 87.91 20.1201 90.29C19.3701 88.85 18.2001 87.31 16.6601 86.24C15.1301 85.17 13.2101 84.6 11.3601 84.84C9.13011 85.12 7.11011 86.59 6.07011 88.57C5.03011 90.56 4.95011 93 5.79011 95.09C6.62011 97.18 8.33011 98.87 10.3701 99.8C10.1501 99.73 9.93011 99.68 9.70011 99.63C7.23011 99.13 4.40011 99.88 2.63011 101.73C0.690106 103.75 0.130106 106.97 1.25011 109.53C2.15011 111.57 3.99011 113.11 6.07011 113.91C8.15011 114.72 10.4401 114.84 12.6801 114.9C13.2601 120.71 14.3401 126.46 15.9001 132.09C15.9201 132.18 15.9601 132.27 15.9801 132.36C17.2001 138.01 19.2301 144.36 22.3201 151.49C28.9901 166.89 44.6901 193.2 79.9201 199.13L82.1701 152.96C71.8701 149.29 61.3601 138.55 52.0201 127.41V127.39Z" fill="#333333"/>
    <path opacity="0.6" d="M52.0201 127.39C49.9101 124.35 48.0101 121.2 46.3701 117.93C45.3301 115.86 44.4001 113.75 43.5801 111.6C42.5901 108.99 41.6101 105.44 42.3201 102.73C42.9801 100.2 45.0501 98.85 45.7401 96.33C46.6701 92.88 44.8501 88.89 41.6201 87.34C38.4001 85.79 34.1401 86.87 32.0301 89.75C33.5301 87.6 33.6501 84.71 32.4201 82.51C31.1901 80.31 28.6701 78.89 26.1501 78.98C23.6301 79.07 21.2201 80.67 20.1501 82.96C19.1001 85.23 19.3501 87.91 20.1201 90.29C19.3701 88.85 18.2001 87.31 16.6601 86.24C15.1301 85.17 13.2101 84.6 11.3601 84.84C9.13011 85.12 7.11011 86.59 6.07011 88.57C5.03011 90.56 4.95011 93 5.79011 95.09C6.62011 97.18 8.33011 98.87 10.3701 99.8C10.1501 99.73 9.93011 99.68 9.70011 99.63C7.23011 99.13 4.40011 99.88 2.63011 101.73C0.690106 103.75 0.130106 106.97 1.25011 109.53C2.15011 111.57 3.99011 113.11 6.07011 113.91C8.15011 114.72 10.4401 114.84 12.6801 114.9C13.2601 120.71 14.3401 126.46 15.9001 132.09C15.9201 132.18 15.9601 132.27 15.9801 132.36C17.2001 138.01 19.2301 144.36 22.3201 151.49C28.9901 166.89 44.6901 193.2 79.9201 199.13L82.1701 152.96C71.8701 149.29 61.3601 138.55 52.0201 127.41V127.39Z" fill="#1A1A1A"/>
    <path d="M52.4599 127.39C50.3799 124.35 48.5099 121.2 46.8899 117.93C45.8699 115.86 44.9499 113.75 44.1399 111.6C43.1599 108.99 42.1999 105.44 42.8999 102.73C43.5499 100.2 45.5899 98.85 46.2599 96.33C47.1799 92.88 45.3799 88.89 42.1999 87.34C39.0199 85.79 34.8299 86.87 32.7499 89.75C34.2199 87.6 34.3399 84.71 33.1299 82.51C31.9199 80.31 29.4399 78.89 26.9599 78.98C24.4699 79.07 22.0999 80.67 21.0499 82.96C20.0099 85.23 20.2599 87.91 21.0199 90.29C20.2799 88.85 19.1199 87.31 17.6099 86.24C16.0999 85.17 14.2099 84.6 12.3899 84.84C10.1999 85.12 8.19989 86.59 7.17989 88.57C6.14989 90.56 6.07989 93 6.89989 95.09C7.71989 97.18 9.39989 98.87 11.4099 99.8C11.1899 99.73 10.9699 99.68 10.7499 99.63C8.3099 99.13 5.52989 99.88 3.78989 101.73C1.87989 103.75 1.32989 106.97 2.42989 109.53C3.30989 111.57 5.12989 113.11 7.17989 113.91C9.22989 114.72 11.4899 114.84 13.6899 114.9C14.2599 120.71 15.9399 126.59 15.9599 126.68C17.1599 132.33 23.9399 148.48 26.5099 153.1C32.4099 163.67 47.4399 186.74 82.1499 192.67V152.96C71.9999 149.29 61.6399 138.55 52.4399 127.41L52.4599 127.39Z" fill="#333333"/>
    <path d="M52.46 127.39C50.38 124.35 48.51 121.2 46.89 117.93C45.87 115.86 44.95 113.75 44.14 111.6C43.16 108.99 42.67 107.59 42.13 104.85C41.92 103.82 42.54 115.32 45.85 122.33C53.84 139.25 68.32 152.48 88.28 155.8L82.16 152.95C72.01 149.28 61.65 138.54 52.45 127.4L52.46 127.39Z" fill="#4E4D4D"/>
    <path d="M18.0501 111.56C18.9601 112.35 20.3501 112.7 21.5901 112.65C24.3101 112.53 26.0101 111.12 26.7501 108.43C26.9901 107.56 27.4101 107.13 28.7801 107.85C30.8801 108.96 33.8501 108.34 35.4701 107.39C36.6701 106.69 37.4201 105.35 37.5201 104C37.6201 102.66 37.5901 101.41 36.3001 100.26C35.4801 99.53 26.1301 94.84 24.5601 94.59C23.7701 94.46 22.0401 94.71 21.4501 95.27C20.7201 95.96 20.3901 96.25 19.8701 97.83C19.3501 99.41 17.0901 106 16.7201 107.49C16.3701 108.91 16.9501 110.62 18.0501 111.57V111.56Z" fill="#F3B6D3"/>
    <path d="M18.0501 111.56C18.9601 112.35 20.3501 112.7 21.5901 112.65C24.3101 112.53 26.0101 111.12 26.7501 108.43C26.9901 107.56 27.4101 107.13 28.7801 107.85C30.8801 108.96 33.5901 108.68 35.2101 107.72C36.4101 107.02 37.4201 105.34 37.5201 104C37.6201 102.66 37.5901 101.41 36.3001 100.26C35.4801 99.53 26.5301 95.34 25.0501 94.78C23.9601 94.37 22.0501 94.71 21.4601 95.27C20.7301 95.96 20.4001 96.25 19.8801 97.83C19.3601 99.41 17.1001 106 16.7301 107.49C16.3801 108.91 16.9601 110.62 18.0601 111.57L18.0501 111.56Z" fill="#E2AAC7"/>
    <path d="M18.3601 110.22C19.2101 110.95 20.4901 111.27 21.6501 111.21C24.1801 111.09 25.2801 109.6 26.4601 107.3C26.8201 106.59 28.0501 106.48 29.3101 107.14C31.2601 108.16 33.2701 108.05 34.7901 107.16C35.9101 106.51 37.4301 104.69 37.5201 103.45C37.6201 102.21 37.3001 101.12 36.1001 100.17C35.3001 99.54 26.4201 95.04 25.0101 94.61C23.5301 94.16 21.9201 94.84 21.3701 95.35C20.6901 95.99 20.3801 96.26 19.8901 97.72C19.4001 99.18 17.2801 105.27 16.9401 106.65C16.6101 107.96 17.3401 109.35 18.3601 110.22Z" fill="#F3B6D3"/>
    <g opacity="0.4">
        <path d="M36.0901 100.16C35.2901 99.53 26.4101 95.03 25.0001 94.6C23.5201 94.15 21.9501 94.88 21.3601 95.34C20.3601 96.13 19.8801 97.71 19.8801 97.71C23.8601 92.35 37.2801 101.11 36.0901 100.16Z" fill="white"/>
    </g>
    <path d="M35.8202 96.7C36.3002 97.36 37.0602 97.85 37.8802 97.91C39.3302 98.02 40.5502 96.82 41.2602 95.55C41.8202 94.55 42.2102 93.41 42.1102 92.27C42.0602 91.72 41.8802 91.17 41.5902 90.7C41.2802 90.19 40.8402 89.78 40.2902 89.55C38.6602 88.86 37.1502 89.69 36.2502 90.69C35.3502 91.68 34.9602 93.07 35.0502 94.4C35.0702 94.66 35.1002 94.92 35.1602 95.19C35.2802 95.74 35.4902 96.26 35.8202 96.71V96.7Z" fill="#E2AAC7"/>
    <path d="M35.9501 96.21C36.4101 96.84 37.1301 97.3 37.9101 97.36C39.2901 97.46 40.4601 96.32 41.1401 95.11C41.6801 94.16 42.0501 93.07 41.9501 91.99C41.9101 91.47 41.7401 90.94 41.4601 90.49C41.1701 90.01 40.7401 89.61 40.2201 89.39C38.6701 88.74 37.2201 89.53 36.3701 90.47C35.5101 91.41 35.1401 92.73 35.2201 94C35.2301 94.25 35.2701 94.5 35.3201 94.75C35.4301 95.27 35.6401 95.77 35.9501 96.2V96.21Z" fill="#F3B6D3"/>
    <g opacity="0.4">
        <path d="M41.9501 91.99C41.9101 91.47 41.7401 90.94 41.4601 90.49C41.1701 90.01 40.7401 89.61 40.2201 89.39C38.6701 88.74 37.2201 89.53 36.3701 90.47C36.3701 90.47 38.0201 89.4 39.6301 89.78C41.0701 90.13 41.9501 91.98 41.9501 91.98V91.99Z" fill="white"/>
    </g>
    <path d="M24.3301 88.74C24.3701 88.79 24.4101 88.85 24.4501 88.9C24.9801 89.55 25.7801 90.01 26.6101 90.01C27.8501 90.01 28.9201 89 29.3301 87.83C29.7401 86.66 29.6101 85.38 29.3501 84.17C29.1601 83.3 28.7301 82.57 28.1301 82.13C27.7901 81.88 27.4101 81.72 26.9901 81.68C25.8401 81.58 24.7101 82.28 24.1001 83.26C23.4901 84.24 23.3501 85.46 23.5201 86.6C23.6301 87.36 23.8801 88.12 24.3301 88.74Z" fill="#E2AAC7"/>
    <path d="M24.3002 88.43C24.3402 88.48 24.3802 88.53 24.4202 88.58C24.9302 89.19 25.7002 89.63 26.5102 89.62C27.7102 89.61 28.7602 88.64 29.1602 87.52C29.5702 86.4 29.4502 85.18 29.2102 84.03C29.0402 83.21 28.6202 82.51 28.0502 82.1C27.7302 81.86 27.3502 81.72 26.9502 81.69C25.8402 81.61 24.7302 82.28 24.1302 83.22C23.5302 84.16 23.3902 85.32 23.5402 86.41C23.6402 87.14 23.8702 87.85 24.3002 88.44V88.43Z" fill="#F3B6D3"/>
    <g opacity="0.4">
        <path d="M29.2101 84.03C29.0401 83.21 28.6201 82.51 28.0501 82.1C27.7301 81.86 27.3501 81.72 26.9501 81.69C25.8401 81.61 24.7301 82.28 24.1301 83.22C24.1301 83.22 25.5901 82.09 26.9601 82.32C28.3301 82.55 29.2101 84.04 29.2101 84.04V84.03Z" fill="white"/>
    </g>
    <path d="M9.05 93.33C9.64 94.56 10.84 95.44 12.14 95.86C12.98 96.13 13.89 96.23 14.75 96.01C15.6 95.79 16.39 95.23 16.76 94.42C17.06 93.76 17.05 93.01 16.83 92.31C16.71 91.92 16.52 91.54 16.29 91.21C15.63 90.29 14.67 89.64 13.69 89.08C12.24 88.24 10.45 88.48 9.51 89.48C8.94 90.1 8.67 90.94 8.69 91.78C8.69 92.31 8.82 92.84 9.05 93.32V93.33Z" fill="#E2AAC7"/>
    <path d="M9.14002 93.15C9.73002 94.3 10.89 95.08 12.15 95.44C12.96 95.67 13.84 95.74 14.66 95.51C15.48 95.28 16.23 94.72 16.57 93.95C16.85 93.32 16.83 92.61 16.61 91.96C16.49 91.59 16.3 91.25 16.07 90.94C15.43 90.09 14.49 89.51 13.54 89.01C12.13 88.26 10.41 88.54 9.53002 89.52C8.99002 90.12 8.74002 90.92 8.78002 91.72C8.80002 92.22 8.92002 92.72 9.15002 93.16L9.14002 93.15Z" fill="#F3B6D3"/>
    <g opacity="0.4">
        <path d="M13.54 89.01C12.13 88.26 10.39 88.52 9.50002 89.5C8.96002 90.1 8.74002 90.92 8.77002 91.72C8.77002 91.72 9.29002 90.09 10.59 89.42C11.89 88.75 13.53 89.01 13.53 89.01H13.54Z" fill="white"/>
    </g>
    <path d="M5.72011 108.69C6.60011 109.59 7.86011 110.06 9.11011 110.16C10.6501 110.28 12.3101 109.8 13.3001 108.61C13.7801 108.04 14.0901 107.29 14.0201 106.54C13.9601 105.9 13.6401 105.33 13.2101 104.85C13.0701 104.69 12.9201 104.54 12.7601 104.41C11.4601 103.29 9.65011 102.79 7.96011 103.08C6.44011 103.34 5.15011 104.01 4.78011 105.22C4.58011 105.88 4.62011 106.59 4.84011 107.24C5.02011 107.78 5.33011 108.29 5.73011 108.7L5.72011 108.69Z" fill="#E2AAC7"/>
    <path d="M5.63002 108.31C6.45002 109.12 7.65002 109.43 8.86002 109.49C10.34 109.56 11.94 109.09 12.92 107.99C13.39 107.45 13.7 106.76 13.65 106.08C13.61 105.5 13.31 104.98 12.91 104.55C12.78 104.41 12.63 104.28 12.48 104.16C11.25 103.17 9.34002 102.84 7.90002 103.05C6.46002 103.26 5.19002 103.96 4.80002 105.07C4.59002 105.68 4.63002 106.45 4.83002 107.04C4.99002 107.53 5.25002 107.95 5.62002 108.31H5.63002Z" fill="#F3B6D3"/>
    <g opacity="0.4">
        <path d="M7.96011 103.03C6.46011 103.29 5.18011 103.9 4.80011 105.07C4.59011 105.71 4.61011 106.61 4.83011 107.23C4.83011 107.23 4.77011 105.75 5.64011 104.62C6.59011 103.38 7.97011 103.03 7.97011 103.03H7.96011Z" fill="white"/>
    </g>
    <path d="M81.99 153.45C69.4 148.41 60.33 137.62 51.65 127.65C48.99 123.82 46.63 119.77 44.71 115.51C42.96 111.24 40.57 106.55 42.15 101.8C43.11 99.49 45.05 97.96 45.38 95.79C46.3 91.46 42.59 86.7 38.03 87.13C35.85 87.23 33.7 88.3 32.41 90.04C32.26 90.25 31.96 90.29 31.75 90.14C31.54 89.99 31.5 89.7 31.64 89.49C32.97 87.56 33.1 84.86 31.97 82.85C29.61 78.46 22.85 78.65 20.83 83.2C19.9 85.29 20.19 87.78 20.98 90.01C21.33 91.05 19.82 91.65 19.34 90.7C18.25 88.56 16.51 86.66 14.28 85.91C9.48002 84.03 4.63002 89.08 6.01002 93.92C6.54002 96.29 8.33002 98.33 10.56 99.38C10.78 99.49 10.88 99.76 10.77 99.98C10.67 100.18 10.45 100.28 10.24 100.22C7.98002 99.59 5.39002 100.11 3.61002 101.59C-0.22998 104.8 1.10002 111.01 5.64002 112.86C7.74002 113.85 10.19 113.97 12.67 114C13.14 113.99 13.53 114.35 13.57 114.8C15 126.75 18.47 138.4 22.97 149.55C27.32 160.7 33.84 171.02 42.6 179.18C48.33 184.7 55 189.12 62.08 192.85C62.52 193.08 62.68 193.62 62.45 194.05C62.24 194.46 61.75 194.63 61.33 194.46C53.69 191.46 46.66 186.87 40.67 181.21C27.1 168.43 19.59 150.76 14.97 133.02C13.42 127.15 12.31 121.04 11.79 114.97L12.65 115.77H12.61C7.60002 115.87 0.98002 113.85 0.11002 108C-0.91998 102.18 5.05002 97.52 10.5 99.35L10.18 100.19H10.15C4.87002 98.1 2.61002 90.6 6.86002 86.37C11.26 81.69 18.49 84.72 20.91 89.87L19.27 90.56C18.52 88.05 18.27 85.13 19.54 82.59C22.1 77.17 30.2 76.99 32.92 82.32C34.21 84.75 33.97 87.82 32.4 90.02L31.63 89.47C33.12 87.47 35.52 86.29 37.97 86.18C43.11 85.73 47.32 91.02 46.27 95.96C45.82 98.51 43.76 100.14 42.98 102.13C41.54 106.43 43.86 111.12 45.51 115.12C49.96 125.58 57.72 133.91 65.93 141.62C70.82 146.05 76.17 150.17 82.34 152.43C82.62 152.53 82.76 152.84 82.66 153.12C82.56 153.4 82.25 153.54 81.97 153.44L81.99 153.45Z" fill="black"/>
    <path d="M77.47 50.23C77.47 50.23 88.59 30.78 117.2 28.97C117.2 28.97 106.81 2.2 96.04 1.01C81.7 -0.580001 76 48.6 76 48.6" fill="#4E4D4D"/>
    <path d="M77.2 48.7C77.2 48.7 87.96 30.92 113.53 29.46C113.53 29.46 105.74 4.65 96.11 3.57C83.28 2.12 78.69 47.5 78.69 47.5" fill="#333333"/>
    <path d="M107.99 29.57C107.99 29.57 104.06 19.25 96.85 10.94C96.85 10.94 85.25 23.08 85.25 39.6C85.25 41.38 97.57 26.65 107.99 29.57Z" fill="#F6BEC7"/>
    <path d="M77.46 49.54L75.52 49.34C75.68 47.76 79.66 10.59 90.44 1.90001C92.23 0.450012 94.14 -0.169988 96.13 0.0500117C107.36 1.29001 117.66 27.51 118.09 28.63L116.28 29.33C116.18 29.07 105.98 3.09001 95.91 1.98001C94.44 1.82001 93.05 2.29001 91.65 3.41001C81.5 11.6 77.48 49.16 77.44 49.54H77.46Z" fill="black"/>
    <path d="M106.64 29.29C103.87 21.41 99.6201 13.93 93.8701 7.78C97.1101 10.53 100.03 13.69 102.61 17.13C105.17 20.58 107.46 24.26 109.34 28.18L106.64 29.29Z" fill="black"/>
    <path d="M47.55 237.64C50.45 193.6 70.4101 164.75 70.4101 164.75C82.1601 144.31 68.3101 132.29 69.9401 109.36L166.99 111.78C168.62 134.71 169.35 149.41 175.46 163.56C175.46 163.56 199.18 201.78 202.69 237.64H47.55Z" fill="#4E4D4D"/>
    <path d="M51.4402 237.64C51.4402 219.2 54.7102 200.8 59.3502 185.91C62.9602 174.33 66.3702 167.76 73.6702 157.14C77.1202 152.13 84.3902 136.28 81.2802 126.67L173.26 116.19C168.24 139.77 165.76 145.15 179.34 171.71C179.34 171.71 197.13 195.68 202.69 237.63H51.4402V237.64Z" fill="#333333"/>
    <g opacity="0.6">
        <path d="M177.14 177.86C184.29 190.53 187.45 204.83 195.17 237.59C199.89 237.6 202.71 237.64 202.71 237.64C199.2 201.78 184.62 181.04 175.48 163.56C171.45 155.84 170.57 152.77 169.42 143.04C168.53 151.47 171.41 167.7 177.14 177.86Z" fill="#1A1A1A"/>
    </g>
    <path d="M166.16 237.15C158.86 216.32 143.39 203.61 122.64 202.1C102.99 200.67 83.7401 214.34 80.9001 236.19L166.16 237.15Z" fill="#FADFB2"/>
    <path d="M166.44 237.21C159.34 214.62 143.83 200.88 122.86 199.37C103.18 197.95 83.47 215.13 80.5 237.64L166.44 237.22V237.21Z" fill="#FFEDD4"/>
    <path opacity="0.7" d="M166.47 237.21C159.52 214.63 143.2 200.83 122.86 199.37C103.74 197.99 85.4801 212.09 83.3801 236.25L166.47 237.22V237.21Z" fill="#EFC796"/>
    <path d="M163.04 237.64C156.6 215.26 142.05 200.74 122.87 199.37C104.72 198.07 84.5502 213.46 82.2202 237.64H163.05H163.04Z" fill="#FADFB2"/>
    <path d="M202.7 239.07C201.99 239.07 201.38 238.55 201.28 237.83C196.77 204.35 185.57 184.36 178.15 171.13C175.67 166.71 173.72 163.22 172.6 160.24C166.8 144.82 165.53 136.3 163.87 112.94C163.81 112.15 164.41 111.46 165.2 111.41C165.99 111.35 166.68 111.95 166.73 112.74C168.37 135.77 169.62 144.15 175.29 159.23C176.33 162 178.24 165.41 180.66 169.72C188.18 183.14 199.54 203.42 204.13 237.44C204.24 238.22 203.68 238.95 202.9 239.05C202.84 239.05 202.77 239.06 202.71 239.06L202.7 239.07Z" fill="black"/>
    <path d="M73.27 156.97C76.44 149.73 74.39 142.1 72.35 134.82C70.27 127.34 69.21 119.48 69.58 111.68C69.61 110.89 70.27 110.27 71.06 110.29C71.89 110.31 72.53 111.05 72.44 111.87C72.15 115.62 72.08 119.39 72.37 123.15C72.96 134.44 79.39 146.28 74.05 157.3C73.83 157.79 73.04 157.48 73.26 156.96L73.27 156.97Z" fill="black"/>
    <path d="M46.1301 237.15C46.5601 216.83 52.6201 197.08 61.2901 178.89C61.6801 178.11 62.9201 178.64 62.5401 179.48C54.4501 197.56 48.9201 217.28 48.9901 237.15C48.9901 239.05 46.1301 239.08 46.1201 237.15H46.1301Z" fill="black"/>
    <path d="M145.84 152.23C153.67 149.84 161.3 146.07 164.79 143.79C173.33 138.2 180.49 131.08 185.48 122.91C191.37 113.25 193.93 102.16 192.76 90.32C189.21 54.24 160.4 25.67 120.47 25.67C85.3001 25.67 71.4401 58.74 68.9001 60.42C58.8801 67.04 53.0701 78.26 51.1501 89.35C48.9001 102.29 52.2201 115.49 59.4501 125.82C67.4501 137.25 81.3801 148.41 97.0601 153.46" fill="#4E4D4D"/>
    <path d="M140.39 154.45C147.89 152.2 161.94 144.95 165.28 142.81C173.46 137.55 179.3 131.13 184.08 123.43C189.72 114.33 190.19 102.9 189.07 91.76C185.67 57.79 157.6 29.9 119.38 29.9C85.72 29.9 71.96 62.52 69.53 64.1C59.94 70.33 54.31 81.47 53.38 92.03C52.05 107.21 56.32 118.98 63.24 128.7C70.9 139.46 82.95 148.92 97.96 153.67" fill="#333333"/>
    <path d="M192.41 82.62C189.55 72.44 182.69 46.17 160.21 36.91C160.21 36.91 178.84 15.33 188.79 16.28C202.03 17.55 201.8 56.22 194.13 80.81" fill="#4E4D4D"/>
    <path d="M188.68 18.23C179.74 18.25 162.21 38.05 162.21 38.05C183.14 47.41 190.8 78.98 190.8 78.98C198.92 65.58 198.9 18.21 188.68 18.23Z" fill="#333333"/>
    <path d="M186.42 63.84C186.42 63.84 194.14 46.97 190.28 26.66C190.28 26.66 184.62 28.63 178.52 33.49C171.33 39.22 169.29 42.38 169.29 42.38C170.64 43.32 181.5 55.73 186.42 63.84Z" fill="#F6BEC7"/>
    <path d="M193.48 84.64L191.74 83.78C200.71 65.64 200.78 33.53 194.29 21.88C192.69 19.01 190.81 17.46 188.69 17.26C179.36 16.42 161.13 37.34 160.94 37.55L159.47 36.28C160.23 35.4 177.72 15.29 188.15 15.29C188.4 15.29 188.64 15.3 188.87 15.32C191.66 15.59 194.06 17.48 195.98 20.93C203.44 34.33 202.15 67.08 193.47 84.64H193.48Z" fill="black"/>
    <path d="M184.65 64.41C190.93 53.04 192.37 39.11 190.2 26.37C189.9 24.5 189.41 22.67 189.03 20.81C189.53 22.63 190.14 24.44 190.56 26.29C192.78 35.6 193.02 45.4 190.94 54.78C190.09 58.57 188.98 62.23 187.17 65.87L184.65 64.4V64.41Z" fill="black"/>
    <path d="M140.78 28.85C140.78 28.85 135.34 35.87 132.3 43.52C131.43 45.71 131.82 48.18 133.86 49.36L134.66 49.82C136.7 51 139.72 50.49 140.5 48.26C144.06 38.05 148.98 33.59 148.98 33.59C149.37 32.91 149.54 32.17 149.54 31.44C147.39 30.27 145.14 29.08 142.96 27.81C142.71 27.66 142.44 27.55 142.18 27.41C141.63 27.77 141.14 28.24 140.79 28.85H140.78Z" fill="#FADFB2"/>
    <path d="M123.38 43.79L124.18 44.25C126.22 45.43 129.25 44.92 130.02 42.69C133.39 32.86 138.5 28.02 138.5 28.02C138.86 27.4 139.03 26.72 139.05 26.05C135.94 24.98 132.56 24.55 129.26 24.65C127.48 27.07 123.84 32.39 121.82 37.95C121.01 40.17 121.34 42.61 123.38 43.79Z" fill="#FADFB2"/>
    <g opacity="0.8">
        <path d="M161.136 107.99L151.648 110.235C151.202 110.34 150.926 110.787 151.031 111.234L151.363 112.635C151.468 113.081 151.916 113.357 152.362 113.251L161.85 111.007C162.296 110.901 162.572 110.454 162.466 110.008L162.135 108.607C162.029 108.161 161.582 107.885 161.136 107.99Z" fill="#F2BBC5"/>
        <path d="M157.526 103.26L151.385 104.713C150.939 104.818 150.663 105.266 150.769 105.712L151.1 107.113C151.206 107.559 151.653 107.835 152.099 107.73L158.24 106.277C158.686 106.171 158.962 105.724 158.856 105.278L158.525 103.877C158.419 103.431 157.972 103.155 157.526 103.26Z" fill="#F2BBC5"/>
    </g>
    <g opacity="0.8">
        <path d="M67.4775 77.1167L66.5187 77.8549C66.2167 78.0873 66.1604 78.5205 66.3928 78.8225L71.3705 85.2885C71.6029 85.5904 72.0362 85.6468 72.3381 85.4143L73.2969 84.6762C73.5989 84.4437 73.6552 84.0105 73.4228 83.7085L68.4451 77.2426C68.2127 76.9406 67.7794 76.8843 67.4775 77.1167Z" fill="#F2BBC5"/>
        <path d="M72.3046 75.9517L71.3458 76.6898C71.0439 76.9223 70.9875 77.3555 71.22 77.6575L74.4469 81.8493C74.6794 82.1512 75.1126 82.2076 75.4146 81.9751L76.3734 81.237C76.6753 81.0046 76.7317 80.5713 76.4992 80.2694L73.2723 76.0776C73.0398 75.7756 72.6066 75.7193 72.3046 75.9517Z" fill="#F2BBC5"/>
    </g>
    <path opacity="0.6" d="M57.6201 122.83C57.6201 122.83 84.3701 146.56 122.29 146.56C160.21 146.56 184.7 122.35 184.7 122.35C179.16 135.23 168.1 142.71 154.39 149.61C148.52 155.06 135.18 165.49 119.41 165.08C104.03 164.67 93.8801 156.66 89.0401 151.68C74.5801 145.51 64.3001 135.18 57.6301 122.83H57.6201Z" fill="#1A1A1A"/>
    <path opacity="0.6" d="M75.3801 143.1C75.3801 143.1 89.3501 156.37 122.53 157.03C154.07 157.65 170.2 141.56 170.2 141.56C174.78 152.89 143.45 164.59 122.83 165.1C99.4701 165.67 71.8001 151.55 75.3801 143.11V143.1Z" fill="#1A1A1A"/>
    <path d="M145.78 152.04C167.51 144.83 187.41 126.97 191 103.62C195.88 63.13 163.06 27.57 122.58 27.2C107 26.26 92.04 33.4 81.84 45.03C77.5 49.7 74.13 55.09 70.59 60.4C70.33 60.75 69.94 61.23 69.5 61.51C59.1 68.36 52 80.43 50.75 92.82C49.91 104.43 54.2 115.92 60.35 125.65C68.74 138.8 82.27 148.27 97.09 153.39C97.18 153.41 97.13 153.57 97.04 153.53C81.89 149.04 67.85 139.84 58.94 126.57C50.23 113.42 45 96.08 51.35 80.87C54.73 72.36 60.39 64.51 68.17 59.42C80.74 38.93 96.84 23.34 122.65 24.23C155.36 24.16 185.57 47.98 192.53 80.06C196.48 95.7 194.49 113.13 184.89 126.38C175.7 139.66 161.33 148.42 145.89 152.42C145.65 152.49 145.54 152.11 145.77 152.04H145.78Z" fill="black"/>
    <path d="M166.15 116.42C166.49 116.75 166.92 116.97 167.35 117.18C170.56 118.77 173.76 120.32 176.86 122.1C180.56 124.23 184.23 126.6 187.58 129.31C189.29 130.69 190.92 132.17 192.43 133.76C193.13 134.49 193.85 135.24 194.44 136.05C195.08 136.92 195.55 137.91 196.32 138.68C196.73 139.08 197.26 139.16 197.79 138.91C200.35 137.74 196.11 133.32 195.22 132.34C192.57 129.43 189.61 126.95 186.34 124.76C180.59 120.91 174.17 118.08 167.45 116.44C167.01 116.33 166.55 116.23 166.13 116.37C166.14 116.38 166.15 116.39 166.16 116.4L166.15 116.42Z" fill="black"/>
    <path d="M171.45 112.9C171.88 113.11 172.36 113.18 172.83 113.24C176.37 113.73 179.91 114.19 183.41 114.9C187.59 115.75 191.83 116.83 195.86 118.35C197.92 119.12 199.93 120.01 201.87 121.04C202.76 121.51 203.68 121.99 204.51 122.58C205.39 123.2 206.15 124 207.13 124.48C207.65 124.73 208.17 124.64 208.6 124.23C210.65 122.31 205.24 119.46 204.08 118.82C200.64 116.9 197.06 115.48 193.25 114.44C186.58 112.61 179.59 111.95 172.69 112.53C172.24 112.57 171.77 112.62 171.41 112.88C171.42 112.88 171.44 112.89 171.45 112.9Z" fill="black"/>
    <path d="M170.73 108.47C171.21 108.52 171.69 108.41 172.16 108.31C175.69 107.52 179.2 106.7 182.78 106.14C187.05 105.47 191.45 104.99 195.8 105C198.02 105 200.25 105.13 202.45 105.42C203.47 105.55 204.5 105.68 205.49 105.95C206.54 106.23 207.55 106.71 208.64 106.82C209.22 106.88 209.68 106.6 209.95 106.06C211.22 103.51 205.07 102.73 203.75 102.53C199.81 101.93 195.91 101.85 191.93 102.21C184.96 102.84 178.09 104.69 171.76 107.68C171.35 107.87 170.92 108.09 170.67 108.47C170.69 108.47 170.7 108.47 170.72 108.47H170.73Z" fill="black"/>
    <path d="M63.82 81.6C63.5 81.73 63.14 81.75 62.8 81.77C60.19 81.91 57.59 82.02 55 82.33C51.9 82.7 48.75 83.24 45.72 84.12C44.17 84.57 42.65 85.11 41.18 85.76C40.5 86.06 39.8 86.36 39.16 86.75C38.48 87.16 37.88 87.72 37.13 88.02C36.74 88.18 36.36 88.07 36.08 87.74C34.71 86.15 38.83 84.35 39.71 83.94C42.33 82.72 45.03 81.88 47.87 81.34C52.84 80.39 57.97 80.36 62.95 81.25C63.27 81.31 63.61 81.38 63.86 81.6C63.85 81.6 63.84 81.6 63.83 81.61L63.82 81.6Z" fill="black"/>
    <path d="M61.2901 77.55C60.9401 77.57 60.6001 77.47 60.2701 77.37C57.7501 76.64 55.2501 75.89 52.7001 75.33C49.6501 74.66 46.5001 74.14 43.3601 73.97C41.7601 73.89 40.1501 73.9 38.5501 74.03C37.8101 74.09 37.0601 74.15 36.3401 74.31C35.5701 74.48 34.8301 74.8 34.0301 74.84C33.6101 74.86 33.2901 74.63 33.1201 74.22C32.3001 72.26 36.7601 71.91 37.7201 71.81C40.5801 71.51 43.4001 71.6 46.2501 72.03C51.2501 72.77 56.1301 74.42 60.5801 76.91C60.8701 77.07 61.1701 77.25 61.3301 77.54C61.3201 77.54 61.3101 77.54 61.2901 77.54V77.55Z" fill="black"/>
    <path d="M63.05 74.67C62.72 74.56 62.43 74.34 62.14 74.13C60 72.51 57.88 70.88 55.65 69.41C52.99 67.65 50.17 65.99 47.25 64.68C45.76 64.01 44.23 63.43 42.67 62.96C41.95 62.75 41.22 62.52 40.48 62.41C39.69 62.29 38.88 62.32 38.11 62.07C37.7 61.94 37.48 61.6 37.45 61.15C37.34 58.99 41.69 60.3 42.63 60.56C45.44 61.33 48.08 62.46 50.64 63.91C55.13 66.45 59.2 69.82 62.57 73.82C62.79 74.08 63.01 74.36 63.07 74.7C63.06 74.7 63.05 74.7 63.04 74.69L63.05 74.67Z" fill="black"/>
    <path d="M106.55 37.67C106.13 35.65 105.4 33.55 104.26 31.78C104.15 31.62 104.19 31.41 104.35 31.3C104.49 31.21 104.68 31.23 104.79 31.35C106.38 33.03 107.51 34.99 108.41 37.13C108.61 37.63 108.37 38.2 107.87 38.41C107.3 38.65 106.64 38.28 106.54 37.68L106.55 37.67Z" fill="black"/>
    <path d="M101.93 37.93C101.07 36.6 99.8703 35.33 98.5603 34.39C98.4003 34.28 98.3603 34.07 98.4703 33.91C98.5603 33.78 98.7403 33.73 98.8803 33.79C100.58 34.48 102.06 35.44 103.43 36.71C104.46 37.73 102.71 39.16 101.92 37.94L101.93 37.93Z" fill="black"/>
    <path d="M96.8502 38.95C96.0402 38.11 94.9602 37.45 93.8902 36.95C93.5302 36.8 93.6902 36.24 94.0702 36.29C95.4602 36.45 96.8202 36.76 98.0902 37.43C99.4202 38.24 97.9202 40.09 96.8502 38.95Z" fill="black"/>
    <path d="M155.81 50.64C157.83 48.23 159.99 46.01 162.58 44.25C162.74 44.14 162.95 44.19 163.06 44.34C163.16 44.48 163.13 44.68 163 44.79C160.79 46.78 158.96 49.27 157.4 51.77C156.67 52.92 154.96 51.71 155.82 50.64H155.81Z" fill="black"/>
    <path d="M160.46 52.26C162.37 51.14 164.35 50.31 166.52 49.94C166.71 49.91 166.88 50.04 166.92 50.22C166.95 50.38 166.85 50.54 166.7 50.6C164.84 51.32 163.09 52.5 161.64 53.82C160.59 54.76 159.27 53.01 160.47 52.26H160.46Z" fill="black"/>
    <path d="M164.94 55.43C166.43 55.03 167.95 55.01 169.45 55.28C169.64 55.31 169.76 55.49 169.73 55.68C169.7 55.83 169.57 55.94 169.42 55.96C168.14 56.12 166.82 56.53 165.74 57.2C164.44 58.05 163.44 55.84 164.94 55.43Z" fill="black"/>
    <path d="M74.0901 141.84C74.0901 141.84 88.4701 154.9 122.42 155.3C154.7 155.69 171.11 139.61 171.11 139.61C175.87 150.81 143.88 162.65 122.78 163.3C98.8801 164.03 70.4801 150.24 74.0901 141.84Z" fill="#FB893D"/>
    <path d="M73.8001 143.04C73.8001 143.04 89.64 158.38 122.11 158.32C153.45 158.27 171.14 140.44 171.14 140.44C174.83 150.67 143.26 162.67 122.77 163.29C99.56 164 73.7701 151.86 73.7901 143.03L73.8001 143.04Z" fill="#FF6927"/>
    <path opacity="0.6" d="M117.04 165.79C111.06 164.82 105.46 168.68 104.54 174.41C103.61 180.14 107.71 185.56 113.69 186.53C119.67 187.5 125.27 183.64 126.19 177.91C127.12 172.18 123.02 166.76 117.04 165.79ZM116.55 168.87C116.05 168.79 115.7 168.33 115.78 167.85C115.86 167.37 116.33 167.04 116.83 167.12C117.33 167.2 117.68 167.66 117.6 168.14C117.52 168.62 117.05 168.95 116.55 168.87Z" fill="#1A1A1A"/>
    <path d="M114.66 166.79C115.16 166.79 115.57 167.19 115.57 167.67C115.57 168.15 115.16 168.54 114.65 168.54L114.63 174.42C114.82 174.39 115.02 174.37 115.18 174.31C116.38 173.91 116.44 172.2 116.46 171.62C116.5 170.43 116.37 169.99 116.69 169.94C117.1 169.89 117.52 171.07 117.56 171.08C117.64 170.77 117.47 169.95 117.77 169.95C117.99 169.92 118.42 170.3 118.68 171.08C119.08 172.45 120.13 172.09 121.6 172.05C121.74 172.04 121.96 172.16 121.96 172.29C121.98 173.42 121.59 174.3 120.37 174.53C119.78 174.64 119.18 174.75 118.97 174.82C118.57 175.02 118.64 175.38 119.02 175.57C119.91 176.05 120.99 176.57 121.82 177.63C122 177.92 121.4 178.56 121.02 178.42C119.63 177.6 118.01 176.77 117.94 176.94C117.85 177.16 120.35 178.27 121.05 179.7C121.19 180.06 120.72 180.8 120.17 180.39C118.64 179.3 117.65 178.75 116.26 178.42C115.72 178.29 115.17 178.25 114.63 178.25L114.6 186.26C120.6 186.28 125.47 181.65 125.5 175.9C125.53 170.15 120.68 165.49 114.68 165.46V166.8L114.66 166.79Z" fill="#F3BCC6"/>
    <path d="M114.58 186.25L114.61 178.24C113.54 178.24 112.53 178.41 111.87 178.69C110.46 179.32 109.94 179.91 108.93 180.85C108.72 180.99 107.86 180.36 107.93 180.12C109.12 177.93 110.92 177.12 110.83 177.01C110.26 177.01 108.74 178.24 107.76 179.04C107.54 179.18 106.81 178.67 106.89 178.43C107.5 176.93 109.4 175.52 110.2 174.95C109.62 174.28 109.39 173.29 109.59 172.65C109.64 172.49 109.79 172.47 109.86 172.62C110.33 173.55 111.27 174.19 111.88 174.31C112.78 174.44 113.84 174.54 114.64 174.44L114.66 168.56C114.16 168.56 113.76 168.16 113.76 167.68C113.76 167.2 114.17 166.81 114.67 166.81V165.47C108.68 165.45 103.8 170.08 103.78 175.82C103.76 181.56 108.6 186.24 114.6 186.26L114.58 186.25Z" fill="#FF6927"/>
    <path d="M116.25 178.41C117.64 178.74 118.63 179.29 120.16 180.38C120.71 180.79 121.17 180.05 121.04 179.69C120.34 178.25 117.84 177.15 117.93 176.93C118 176.76 119.62 177.59 121.01 178.41C121.39 178.55 121.99 177.91 121.81 177.62C120.98 176.56 119.91 176.04 119.01 175.56C118.63 175.37 118.57 175.01 118.96 174.81C119.17 174.74 119.77 174.64 120.36 174.52C121.58 174.29 121.97 173.41 121.95 172.28C121.95 172.15 121.73 172.03 121.59 172.04C120.12 172.08 119.07 172.44 118.67 171.07C118.41 170.29 117.98 169.91 117.76 169.94C117.46 169.94 117.64 170.76 117.55 171.07C117.51 171.07 117.09 169.88 116.68 169.93C116.36 169.99 116.49 170.42 116.45 171.61C116.43 172.19 116.37 173.9 115.17 174.3C115.01 174.35 114.82 174.38 114.62 174.41C113.82 174.52 112.76 174.41 111.86 174.28C111.26 174.17 110.31 173.53 109.84 172.59C109.76 172.44 109.62 172.45 109.57 172.62C109.38 173.27 109.61 174.25 110.18 174.92C109.38 175.5 107.48 176.91 106.87 178.4C106.79 178.64 107.53 179.15 107.74 179.01C108.72 178.21 110.24 176.98 110.81 176.98C110.9 177.09 109.1 177.9 107.91 180.09C107.84 180.33 108.7 180.96 108.91 180.82C109.92 179.88 110.44 179.29 111.85 178.66C112.51 178.39 113.52 178.21 114.59 178.21C115.13 178.21 115.68 178.25 116.22 178.38L116.25 178.41Z" fill="black"/>
    <path d="M115.133 163.071L114.193 163.067L114.178 166.987L115.118 166.991L115.133 163.071Z" fill="black"/>
    <path d="M168.72 85.69C164.99 95.69 153.97 99.74 143.29 96.25C132.61 92.76 126.32 83.03 130.05 73.03C133.78 63.03 144.68 55.73 155.36 59.22C166.04 62.71 172.45 75.69 168.71 85.69H168.72Z" fill="#FFE40E"/>
    <path d="M160.1 76.99C157.57 83.75 149.71 85.67 142.33 83.25C134.95 80.83 128.69 73.63 132.87 67.75C136.57 62.54 143.3 57.36 150.62 58.19C158.33 59.06 162.63 70.23 160.1 76.99Z" fill="black"/>
    <g opacity="0.5">
        <path d="M152.39 81.83C149.29 82.86 144.97 82.93 145.13 81.34C145.21 80.59 146.43 81.2 149.52 80.17C152.62 79.14 154.62 76.69 155.65 77.78C156.95 79.16 155.48 80.8 152.39 81.83Z" fill="white"/>
    </g>
    <path d="M161.54 66.21C162.41 69.26 160.5 72.32 157.28 73.05C154.06 73.78 150.75 71.9 149.88 68.86C149.01 65.81 150.92 62.75 154.14 62.02C157.36 61.29 160.67 63.17 161.54 66.22V66.21Z" fill="white"/>
    <g opacity="0.5">
        <path d="M142.78 78.45C143.13 79.68 142.36 80.91 141.06 81.21C139.76 81.51 138.43 80.75 138.08 79.52C137.73 78.29 138.5 77.06 139.8 76.76C141.1 76.47 142.43 77.22 142.78 78.45Z" fill="white"/>
    </g>
    <path d="M111.59 65.14C108.62 76.69 94.8601 80.41 86.7401 76.69C76.7701 72.12 74.1701 63.94 76.4901 56.14C79.4201 46.31 88.8401 39.32 99.4501 42.56C111.72 46.31 114.14 55.2 111.59 65.13V65.14Z" fill="#FFE40E"/>
    <path d="M105.25 58.34C102.83 64.84 93.8202 67.92 87.1802 65.75C80.5402 63.58 74.9902 56.34 78.9002 50.65C82.3602 45.61 87.3302 41.78 94.6902 41.68C107.57 41.5 107.67 51.84 105.25 58.34Z" fill="black"/>
    <g opacity="0.5">
        <path d="M96.0001 64.09C93.0301 65.08 88.8701 65.14 89.0201 63.62C89.0901 62.89 90.2701 63.48 93.2401 62.5C96.2101 61.52 98.1401 59.16 99.1301 60.21C100.38 61.54 98.9701 63.11 95.9901 64.1L96.0001 64.09Z" fill="white"/>
    </g>
    <path d="M108.03 51.36C108.87 54.29 107.03 57.23 103.94 57.93C100.85 58.63 97.6601 56.83 96.8301 53.9C95.9901 50.97 97.83 48.03 100.92 47.33C104.01 46.63 107.2 48.43 108.03 51.36Z" fill="white"/>
    <g opacity="0.5">
        <path d="M84.42 58.64C84.76 59.82 84.02 61.01 82.77 61.29C81.52 61.57 80.24 60.85 79.9 59.67C79.56 58.49 80.3 57.3 81.55 57.02C82.8 56.74 84.08 57.46 84.42 58.64Z" fill="white"/>
    </g>
    <g opacity="0.7">
        <path d="M119.38 89.31C118.59 92.19 114.76 93.2 110.66 92.07C106.56 90.94 103.88 87.69 104.67 84.8C105.46 81.91 109.43 80.5 113.53 81.63C117.63 82.76 120.17 86.42 119.38 89.3V89.31Z" fill="#1A1A1A"/>
    </g>
    <path d="M95.52 100.71C95.52 100.71 99.59 111.78 95.78 125.43C94.25 130.92 102.84 134.07 108.14 129.45C113.44 124.83 117.67 113.84 120.02 106.9C120.02 106.9 115.66 108.3 111.87 103.97C109.8 101.6 108.1 99.94 108.1 99.94C108.1 99.94 101.45 104.27 95.53 100.71H95.52Z" fill="#74294E"/>
    <path d="M101.64 102.38C101.83 102.83 101.73 103.23 101.27 103.91C101.06 104.22 100.79 105.37 100.52 105.32C100 105.22 99.9602 104.08 99.8402 103.44C99.7602 103.02 99.5702 102.53 100.04 102.37C100.77 102.12 101.46 101.96 101.64 102.37V102.38Z" fill="#F0F0F0"/>
    <path d="M113.56 105.96C113.18 106.26 113.08 106.67 113.16 107.48C113.19 107.85 112.89 109 113.16 109.08C113.67 109.24 114.24 108.25 114.65 107.74C114.92 107.41 115.08 107.19 114.98 106.71C114.84 106 113.92 105.67 113.57 105.96H113.56Z" fill="#F0F0F0"/>
    <path d="M95.6801 128.06C97.4701 131.73 101.34 134.53 108.55 129.2C109.2 128.72 107.77 125.92 104.71 125.1C103.54 124.79 102.44 125.52 102.44 125.52C102.44 125.52 101.69 124.88 100.77 124.66C97.9201 123.99 94.8901 126.43 95.6801 128.06Z" fill="#E2597F"/>
    <path d="M88.3601 122.83C88.8701 127.2 90.6201 130.86 94.3101 133.53C89.5301 132.89 86.6201 127.16 88.3601 122.83Z" fill="black"/>
    <path d="M97.2802 129.91C97.6402 129.57 97.7102 129.15 97.5902 128.32C97.5302 127.94 97.7602 126.75 97.4902 126.68C96.9702 126.55 96.4702 127.61 96.0902 128.16C95.8402 128.52 95.7002 128.76 95.8202 129.24C96.0002 129.96 96.9402 130.22 97.2802 129.9V129.91Z" fill="#F0F0F0"/>
    <path d="M103.82 131.3C103.63 130.84 103.74 130.43 104.2 129.73C104.41 129.41 104.69 128.23 104.96 128.28C105.48 128.38 105.51 129.55 105.63 130.21C105.71 130.64 105.74 130.91 105.43 131.31C104.97 131.89 104 131.74 103.83 131.31L103.82 131.3Z" fill="#F0F0F0"/>
    <path d="M126.31 103.62C119.19 110.21 111.62 107.73 107.28 99.62C106.57 98.45 108.42 97.47 109 98.72C112.6 106.28 118.99 108.6 125.72 102.97C126.14 102.59 126.73 103.25 126.31 103.63V103.62Z" fill="black"/>
    <path d="M91.0501 94.01C94.2101 102.18 100.92 103.22 107.72 98.37C108.79 97.58 109.97 99.25 108.83 99.97C103.84 103.2 97.0501 104.52 92.9101 99.26C91.6901 97.76 90.7901 96.09 90.2101 94.26C90.1401 94.03 90.2701 93.78 90.5001 93.7C90.7401 93.62 90.9901 93.76 91.0601 94L91.0501 94.01Z" fill="black"/>
    <path d="M107.19 98.94L108.68 95.22C108.82 94.85 109.4 94.99 109.36 95.38L109.09 99.38C108.93 100.87 106.69 100.36 107.19 98.95V98.94Z" fill="black"/>
    <path d="M109.28 95.63C110.41 96 111.44 94.65 112.98 93.88C114.52 93.11 116.45 93.01 117.1 92.37C118.26 91.23 118.07 88.32 112.29 86.43C106.35 84.49 104.4 86.7 104.5 88.24C104.56 89.11 105.62 90.91 106.41 92.32C107.35 93.99 108.11 95.24 109.28 95.62V95.63Z" fill="#F3B6D3"/>
    <path opacity="0.5" d="M115.33 89.72C116.17 89.64 115.52 88.17 111.88 86.98C108.15 85.76 106.94 86.57 107.4 87.12C107.82 87.63 109.55 87.98 111.36 88.56C112.78 89.02 114.2 89.81 115.33 89.71V89.72Z" fill="white"/>
    <path d="M102.05 132.42C100.29 132.42 98.6301 131.94 97.3601 131.14C95.1801 129.77 94.2701 127.56 94.9201 125.23C98.6201 111.99 94.7201 101.07 94.6801 100.96C94.5401 100.58 94.7401 100.16 95.1101 100.02C95.4901 99.88 95.9101 100.07 96.0501 100.45C96.2201 100.91 100.16 111.9 96.3201 125.62C95.8501 127.31 96.5101 128.88 98.1301 129.9C100.44 131.36 104.51 131.5 107.5 128.9C112.71 124.36 118.08 111.94 119.63 106.26C119.74 105.87 120.13 105.64 120.53 105.75C120.92 105.86 121.15 106.26 121.04 106.65C119.54 112.14 114.15 125.05 108.46 130.01C106.5 131.72 104.19 132.43 102.04 132.43L102.05 132.42Z" fill="black"/>
    <path d="M157.8 236.98C158.09 237.24 158.39 237.47 158.69 237.71H185.46C187.99 232.93 185.46 225.49 181.75 221.68C176.18 215.95 167.49 208.7 146.36 201.2C144.91 200.69 143.65 224.57 157.79 236.98H157.8Z" fill="#333333"/>
    <path opacity="0.6" d="M157.8 236.98C158.09 237.24 158.39 237.47 158.69 237.71H184.75C187.59 232.62 184.91 224.37 180.51 220.16C174.88 214.78 165.99 208.16 146.37 201.2C144.92 200.69 143.66 224.57 157.8 236.98Z" fill="#1A1A1A"/>
    <path d="M164.72 237.71H191.95C193.37 232.59 191.91 225.08 189.02 221.9C182.04 214.22 170.99 207.75 147.05 200.77C145.66 200.36 146.18 218.43 156.92 230.84C159.41 233.72 162.05 235.97 164.73 237.71H164.72Z" fill="#333333"/>
    <path d="M157.09 237.71H160.64C157.88 235.59 155.51 232.91 153.47 230.03C146.94 221.18 144.44 208.92 148.6 198.54C149.01 197.67 147.67 197.16 147.37 198.04C143.14 211.29 145.94 226.83 156.07 236.68C156.39 237.04 156.74 237.38 157.1 237.71H157.09Z" fill="black"/>
    <path d="M152.12 177.38C159.01 176.71 165.6 179.85 170.53 184.37C170.71 184.53 170.72 184.81 170.56 184.99C170.41 185.16 170.14 185.18 169.96 185.04C167.42 183.07 164.61 181.44 161.61 180.47C158.62 179.49 155.43 179.17 152.42 179.68C150.87 179.94 150.54 177.55 152.11 177.38H152.12Z" fill="black"/>
    <path d="M163.61 187.89C165.95 195.47 163.42 202.25 157.77 205.53C152.88 208.37 148.43 206.6 148.43 206.6C148.43 206.6 145.34 208.37 140.88 206.91C135.52 205.15 133.29 200.99 133.29 200.99C133.29 200.99 129.62 200.55 127.6 197.32C124.99 193.14 126.28 185.83 130.57 181.3C130.57 181.3 136.59 174.23 148.57 176.8C160.55 179.37 163.62 187.9 163.62 187.9L163.61 187.89Z" fill="#FFEDD4"/>
    <path d="M163.72 187.57C166.33 194.73 164.17 201.11 158.62 203.79C152.17 206.9 146.66 203.96 146.66 203.96C146.66 203.96 144.64 205.55 140.24 203.85C134.8 201.76 133.3 197.62 133.3 197.62C133.3 197.62 130.59 198.04 128.47 194.95C125.72 190.95 126.72 184.18 130.78 180.13C130.78 180.13 136.46 173.77 148.41 176.63C159.82 179.36 163.72 187.56 163.72 187.56V187.57Z" fill="#FCE1B4"/>
    <path d="M164.46 191.35C164.46 191.35 156.43 182.65 147.75 180.65C136.19 177.99 130.57 181.29 130.57 181.29C130.57 181.29 136.59 174.22 148.57 176.79C160.55 179.36 164.47 191.34 164.47 191.34L164.46 191.35Z" fill="#D3B488"/>
    <path d="M133.4 200.83C133.4 200.83 131.86 196.3 135.15 192.17C135.15 192.17 130.25 196.34 131.16 200.38L133.4 200.83Z" fill="#FFEDD4"/>
    <path d="M135.14 192.17C134.25 193.42 133.66 194.86 133.41 196.34C133.28 197.08 133.26 197.83 133.34 198.56C133.39 199.3 133.62 200.01 133.86 200.69L133.11 200.95C132.91 200.17 132.73 199.39 132.74 198.59C132.72 197.8 132.81 197.01 133.02 196.25C133.41 194.73 134.15 193.33 135.14 192.16V192.17Z" fill="black"/>
    <path d="M133.12 201.1C133.12 201.1 133.07 201.1 133.05 201.08C133.01 201.06 132.99 201.03 132.98 200.99C132.78 200.23 132.6 199.42 132.61 198.59C132.59 197.78 132.69 196.98 132.89 196.21C133.28 194.7 134.02 193.27 135.04 192.07C135.09 192.01 135.18 192 135.24 192.05C135.3 192.1 135.31 192.18 135.27 192.25C134.4 193.48 133.81 194.9 133.57 196.36C133.44 197.08 133.42 197.81 133.5 198.54C133.55 199.29 133.79 200.02 134.01 200.64C134.02 200.68 134.02 200.71 134.01 200.75C133.99 200.78 133.96 200.81 133.93 200.82L133.18 201.08C133.18 201.08 133.15 201.08 133.13 201.08L133.12 201.1ZM133.57 195.07C133.41 195.47 133.28 195.88 133.17 196.29C132.97 197.03 132.88 197.81 132.9 198.59C132.9 199.34 133.05 200.07 133.22 200.77L133.69 200.61C133.48 200 133.26 199.3 133.21 198.58C133.13 197.83 133.15 197.06 133.28 196.32C133.35 195.9 133.45 195.49 133.57 195.08V195.07Z" fill="black"/>
    <path d="M148.46 206.34C148.46 206.34 144.25 202.37 146.27 196.45C146.27 196.45 142.75 200.73 146.24 207.72L148.46 206.34Z" fill="#FFEDD4"/>
    <path d="M146.27 196.45C146 197.31 145.87 198.2 145.82 199.08C145.78 199.97 145.85 200.86 146.04 201.71C146.22 202.57 146.57 203.38 147.02 204.11C147.45 204.86 148.08 205.46 148.72 206.03L148.2 206.63C147.55 205.96 146.92 205.25 146.51 204.41C146.08 203.59 145.78 202.7 145.65 201.79C145.51 200.88 145.51 199.97 145.62 199.07C145.73 198.17 145.94 197.29 146.27 196.45Z" fill="black"/>
    <path d="M148.2 206.78C148.2 206.78 148.12 206.76 148.1 206.74C147.35 205.97 146.78 205.29 146.38 204.48C145.93 203.62 145.63 202.72 145.51 201.81C145.38 200.92 145.37 199.99 145.48 199.05C145.6 198.09 145.82 197.19 146.14 196.4C146.17 196.33 146.25 196.29 146.32 196.32C146.39 196.35 146.43 196.42 146.41 196.5C146.16 197.29 146.02 198.17 145.97 199.1C145.93 199.99 146 200.86 146.19 201.69C146.36 202.51 146.69 203.3 147.15 204.05C147.58 204.8 148.21 205.39 148.82 205.94C148.88 205.99 148.88 206.08 148.83 206.14L148.31 206.74C148.31 206.74 148.25 206.79 148.21 206.79L148.2 206.78ZM145.69 200.27C145.69 200.78 145.72 201.28 145.79 201.77C145.91 202.65 146.19 203.51 146.63 204.35C146.99 205.09 147.52 205.73 148.19 206.43L148.52 206.05C147.93 205.51 147.32 204.93 146.9 204.19C146.42 203.42 146.08 202.6 145.9 201.75C145.79 201.27 145.72 200.77 145.69 200.27Z" fill="black"/>
    <path d="M164.48 187.15C165.86 190.56 166.06 195.52 164.4 199.22C162.3 204.04 157.41 207.61 152.11 207.83C150.75 207.88 149.44 207.78 148.11 207.4L148.85 207.35C144.47 209.51 139.18 207.92 135.61 204.95C134.39 203.9 133.37 202.82 132.53 201.4L133.18 201.85C131.69 201.56 130.44 200.99 129.23 200.14C123.22 195.67 125.17 186.31 129.45 181.28C133.1 176.99 138.86 175.1 144.34 175.27C156.12 175.62 162.62 182.57 164.48 187.18V187.15ZM162.32 188.36C160.07 184.06 156.17 180.63 151.61 178.85C144.82 176.11 135.85 176.63 130.77 182.36C126.12 187.38 124.7 198.81 133.4 200.13L133.8 200.18L134.05 200.58C136.52 204.53 141.49 207.33 146.19 206.45C146.78 206.33 147.5 206.11 148.01 205.85L148.56 205.7L148.75 205.79C153.14 207.62 158.44 205.4 161.02 201.6C163.74 197.79 163.7 192.65 162.32 188.36Z" fill="black"/>
</svg>
